HIERARCHY
ROOT Hips
{
  OFFSET 5.84602e-005 68.8428 3.50346
  CHANNELS 6 Xposition Yposition Zposition Zrotation Xrotation Yrotation
  JOINT Spine
  {
    OFFSET 0 8.597 -4.6522
    CHANNELS 3 Zrotation Xrotation Yrotation
    JOINT Spine1
    {
      OFFSET 0 7.8454 0.4098
      CHANNELS 3 Zrotation Xrotation Yrotation
      JOINT Spine2
      {
        OFFSET 0 9.7078 -2.1609
        CHANNELS 3 Zrotation Xrotation Yrotation
        JOINT Neck
        {
          OFFSET 0 21.8761 -0.4549
          CHANNELS 3 Zrotation Xrotation Yrotation
          JOINT Head
          {
            OFFSET 0 12.3537 3.3602
            CHANNELS 3 Zrotation Xrotation Yrotation
            End Site
            {
              OFFSET 0.0001 18.9506 0.5657
            }
          }
        }
        JOINT LeftShoulder
        {
          OFFSET 2.2086 21.1115 7.2329
          CHANNELS 3 Zrotation Xrotation Yrotation
          JOINT LeftArm
          {
            OFFSET 13.1193 3.0282 -4.8998
            CHANNELS 3 Zrotation Xrotation Yrotation
            JOINT LeftForeArm
            {
              OFFSET 27.4081 -0.0973053 -0.2375
              CHANNELS 3 Zrotation Xrotation Yrotation
              JOINT LeftHand
              {
                OFFSET 22.8641 0.0662994 -0.1369
                CHANNELS 3 Zrotation Xrotation Yrotation
                JOINT LeftHandIndex1
                {
                  OFFSET 8.8614 0.775009 2.4612
                  CHANNELS 3 Zrotation Xrotation Yrotation
                  JOINT LeftHandIndex2
                  {
                    OFFSET 3.3146 -0.808304 0.5841
                    CHANNELS 3 Zrotation Xrotation Yrotation
                    JOINT LeftHandIndex3
                    {
                      OFFSET 2.2628 -0.552002 0.3989
                      CHANNELS 3 Zrotation Xrotation Yrotation
                      End Site
                      {
                        OFFSET 1.6102 -0.4807 0.2612
                      }
                    }
                  }
                }
                JOINT LeftHandMiddle1
                {
                  OFFSET 8.9937 0.895004 0.2143
                  CHANNELS 3 Zrotation Xrotation Yrotation
                  JOINT LeftHandMiddle2
                  {
                    OFFSET 4.0984 0.0113983 -0.0242
                    CHANNELS 3 Zrotation Xrotation Yrotation
                    JOINT LeftHandMiddle3
                    {
                      OFFSET 2.2716 0.00689697 -0.0138001
                      CHANNELS 3 Zrotation Xrotation Yrotation
                      End Site
                      {
                        OFFSET 2.0404 -0.1441 0.0027
                      }
                    }
                  }
                }
                JOINT LeftHandRing1
                {
                  OFFSET 8.5234 0.597198 -2.0164
                  CHANNELS 3 Zrotation Xrotation Yrotation
                  JOINT LeftHandRing2
                  {
                    OFFSET 3.7188 -0.188293 -0.2328
                    CHANNELS 3 Zrotation Xrotation Yrotation
                    JOINT LeftHandRing3
                    {
                      OFFSET 2.1191 -0.106598 -0.1332
                      CHANNELS 3 Zrotation Xrotation Yrotation
                      End Site
                      {
                        OFFSET 1.8737 -0.2304 -0.0886
                      }
                    }
                  }
                }
                JOINT LeftHandPinky1
                {
                  OFFSET 7.9094 -0.601089 -3.4825
                  CHANNELS 3 Zrotation Xrotation Yrotation
                  JOINT LeftHandPinky2
                  {
                    OFFSET 2.2874 -0.477005 -0.6314
                    CHANNELS 3 Zrotation Xrotation Yrotation
                    JOINT LeftHandPinky3
                    {
                      OFFSET 1.6774 -0.349396 -0.4633
                      CHANNELS 3 Zrotation Xrotation Yrotation
                      End Site
                      {
                        OFFSET 1.4888 -0.4091 -0.3416
                      }
                    }
                  }
                }
                JOINT LeftHandThumb1
                {
                  OFFSET 1.833 -1.3875 1.3896
                  CHANNELS 3 Zrotation Xrotation Yrotation
                  JOINT LeftHandThumb2
                  {
                    OFFSET 3.4129 -1.121 2.5732
                    CHANNELS 3 Zrotation Xrotation Yrotation
                    JOINT LeftHandThumb3
                    {
                      OFFSET 2.2474 -0.804199 1.6192
                      CHANNELS 3 Zrotation Xrotation Yrotation
                      End Site
                      {
                        OFFSET 1.6527 -0.5689 1.1317
                      }
                    }
                  }
                }
              }
            }
          }
        }
        JOINT RightShoulder
        {
          OFFSET -2.2086 21.1115 7.2329
          CHANNELS 3 Zrotation Xrotation Yrotation
          JOINT RightArm
          {
            OFFSET -13.1216 3.0287 -4.9007
            CHANNELS 3 Zrotation Xrotation Yrotation
            JOINT RightForeArm
            {
              OFFSET -27.4081 -0.0973053 -0.2375
              CHANNELS 3 Zrotation Xrotation Yrotation
              JOINT RightHand
              {
                OFFSET -22.8641 0.0664063 -0.1369
                CHANNELS 3 Zrotation Xrotation Yrotation
                JOINT RightHandIndex1
                {
                  OFFSET -8.8614 0.774994 2.4612
                  CHANNELS 3 Zrotation Xrotation Yrotation
                  JOINT RightHandIndex2
                  {
                    OFFSET -3.3146 -0.808304 0.5841
                    CHANNELS 3 Zrotation Xrotation Yrotation
                    JOINT RightHandIndex3
                    {
                      OFFSET -2.2628 -0.552002 0.3989
                      CHANNELS 3 Zrotation Xrotation Yrotation
                      End Site
                      {
                        OFFSET -1.6102 -0.4807 0.2612
                      }
                    }
                  }
                }
                JOINT RightHandMiddle1
                {
                  OFFSET -8.9937 0.894989 0.2143
                  CHANNELS 3 Zrotation Xrotation Yrotation
                  JOINT RightHandMiddle2
                  {
                    OFFSET -4.0984 0.0113983 -0.0242
                    CHANNELS 3 Zrotation Xrotation Yrotation
                    JOINT RightHandMiddle3
                    {
                      OFFSET -2.2716 0.00691223 -0.0138001
                      CHANNELS 3 Zrotation Xrotation Yrotation
                      End Site
                      {
                        OFFSET -2.0404 -0.1441 0.0027
                      }
                    }
                  }
                }
                JOINT RightHandRing1
                {
                  OFFSET -8.5234 0.597198 -2.0164
                  CHANNELS 3 Zrotation Xrotation Yrotation
                  JOINT RightHandRing2
                  {
                    OFFSET -3.7188 -0.188309 -0.2328
                    CHANNELS 3 Zrotation Xrotation Yrotation
                    JOINT RightHandRing3
                    {
                      OFFSET -2.1191 -0.106598 -0.1332
                      CHANNELS 3 Zrotation Xrotation Yrotation
                      End Site
                      {
                        OFFSET -1.8737 -0.2304 -0.0886
                      }
                    }
                  }
                }
                JOINT RightHandPinky1
                {
                  OFFSET -7.9094 -0.601105 -3.4825
                  CHANNELS 3 Zrotation Xrotation Yrotation
                  JOINT RightHandPinky2
                  {
                    OFFSET -2.2874 -0.477005 -0.6314
                    CHANNELS 3 Zrotation Xrotation Yrotation
                    JOINT RightHandPinky3
                    {
                      OFFSET -1.6774 -0.349396 -0.4633
                      CHANNELS 3 Zrotation Xrotation Yrotation
                      End Site
                      {
                        OFFSET -1.4888 -0.4091 -0.3416
                      }
                    }
                  }
                }
                JOINT RightHandThumb1
                {
                  OFFSET -1.833 -1.38751 1.3896
                  CHANNELS 3 Zrotation Xrotation Yrotation
                  JOINT RightHandThumb2
                  {
                    OFFSET -3.41299 -1.12099 2.5732
                    CHANNELS 3 Zrotation Xrotation Yrotation
                    JOINT RightHandThumb3
                    {
                      OFFSET -2.24741 -0.804108 1.6192
                      CHANNELS 3 Zrotation Xrotation Yrotation
                      End Site
                      {
                        OFFSET -1.6527 -0.5689 1.1317
                      }
                    }
                  }
                }
              }
            }
          }
        }
      }
    }
  }
  JOINT RightUpLeg
  {
    OFFSET -9.1966 3.8861 -0.7581
    CHANNELS 3 Zrotation Xrotation Yrotation
    JOINT RightLeg
    {
      OFFSET -0.7359 -41.0265 0
      CHANNELS 3 Zrotation Xrotation Yrotation
      JOINT RightFoot
      {
        OFFSET 0 -40.2855 0
        CHANNELS 3 Zrotation Xrotation Yrotation
        JOINT RightToeBase
        {
          OFFSET 0 -5.6122 11.7359
          CHANNELS 3 Zrotation Xrotation Yrotation
          End Site
          {
            OFFSET 0 0 7.8731
          }
        }
      }
    }
  }
  JOINT LeftUpLeg
  {
    OFFSET 9.1965 3.8864 -0.7581
    CHANNELS 3 Zrotation Xrotation Yrotation
    JOINT LeftLeg
    {
      OFFSET 0.7359 -41.0268 0
      CHANNELS 3 Zrotation Xrotation Yrotation
      JOINT LeftFoot
      {
        OFFSET 0 -40.2855 0
        CHANNELS 3 Zrotation Xrotation Yrotation
        JOINT LeftToeBase
        {
          OFFSET 0 -5.6122 11.7359
          CHANNELS 3 Zrotation Xrotation Yrotation
          End Site
          {
            OFFSET 0 0 7.8731
          }
        }
      }
    }
  }
}
MOTION
Frames:	4
Frame Time:	0.0333333
0.997022 20.1611 3.05419 -0 -22.1265 -0 -0.956752 18.2219 0.218421 -2.17128 36.4368 0.848126 -2.17128 36.4368 0.848126 -15.5807 -10.7693 -17.1784 8.69462e-006 -37.6702 9.15687e-006 -12.851 -15.3579 -20.4571 17.7306 22.0546 -54.4632 31.6888 -16.6157 -27.9937 37.5833 2.90563 -14.6132 -5.52424e-008 -9.10505e-008 6.78034e-009 1.65727e-007 2.73151e-007 -2.0341e-008 1.65727e-007 2.73151e-007 -2.0341e-008 -5.52424e-008 -9.10505e-008 6.78034e-009 -0.0146028 -8.8692e-005 -7.82735e-006 1.65727e-007 2.73154e-007 -2.03063e-008 -5.52424e-008 -9.10505e-008 6.78034e-009 -0.0187629 -0.00117605 4.65499e-005 1.65727e-007 2.73155e-007 -2.0298e-008 -5.52424e-008 -9.10505e-008 6.78034e-009 -0.0122596 -0.00324513 0.000671779 1.65728e-007 2.73153e-007 -2.03165e-008 -5.52424e-008 -9.10505e-008 6.78034e-009 1.65727e-007 2.73151e-007 -2.0341e-008 1.65727e-007 2.73151e-007 -2.0341e-008 12.708 -15.5122 22.0394 -17.7465 22.0765 54.4491 -30.7171 -16.1368 27.0233 -38.1897 2.15095 15.7843 2.20695e-032 -1.98785e-016 6.36111e-015 1.10348e-032 -1.98785e-016 3.18055e-015 3.97569e-016 -1.98785e-016 6.36111e-015 2.20695e-032 -1.98785e-016 6.36111e-015 0.0149862 -9.11497e-005 6.37844e-006 -3.97569e-016 5.96354e-016 9.54166e-015 2.20695e-032 -1.98785e-016 6.36111e-015 0.0189911 -0.00119057 -6.25183e-005 3.97569e-016 7.95139e-016 -0 2.20695e-032 -1.98785e-016 6.36111e-015 0.0122494 -0.00324272 -0.000677395 3.54701e-008 -6.07458e-009 2.72186e-006 2.20695e-032 -1.98785e-016 6.36111e-015 1.10348e-032 -1.98785e-016 3.18055e-015 3.97569e-016 -1.98785e-016 6.36111e-015 -77.366 -44.5018 -88.5202 -165.698 69.5814 164.878 -3.33773 -17.8824 1.12843 -2.27226e-007 -6.94779e-007 -1.50715e-006 77.3559 -44.6124 88.4255 165.801 69.5957 -164.977 3.25411 -17.8637 -1.08918 7.92487e-007 -2.96409e-007 -7.69742e-008 
0.997025 20.2489 3.03186 -0 -21.8761 -0 -0.956754 18.222 0.218419 -2.17128 36.4368 0.848126 -2.17128 36.4368 0.848128 -15.505 -10.5271 -17.0634 2.16707e-006 -37.5463 -6.07163e-008 -12.8338 -15.4725 -20.2646 17.7306 22.0546 -54.4632 31.8718 -16.7115 -28.1992 37.6517 3.01782 -14.5029 1.65853e-007 2.73084e-007 -2.02665e-008 5.52844e-008 9.10282e-008 -6.75549e-009 5.52845e-008 9.10281e-008 -6.7555e-009 1.65853e-007 2.73084e-007 -2.02665e-008 -0.014611 -8.83159e-005 1.23624e-006 5.52843e-008 9.1029e-008 -6.74394e-009 1.65853e-007 2.73084e-007 -2.02665e-008 -0.0187601 -0.00117637 5.03624e-005 5.52842e-008 9.10292e-008 -6.74118e-009 1.65853e-007 2.73084e-007 -2.02665e-008 -0.0122749 -0.00324885 0.000667942 5.52847e-008 9.10285e-008 -6.74731e-009 1.65853e-007 2.73084e-007 -2.02665e-008 5.52844e-008 9.10282e-008 -6.75549e-009 5.52845e-008 9.10281e-008 -6.7555e-009 12.6945 -15.6217 21.7909 -17.7464 22.0765 54.4491 -30.9369 -16.2475 27.2635 -38.2388 2.28941 15.6324 3.97569e-016 5.96354e-016 -0 -7.95139e-016 5.96354e-016 -3.18055e-015 -3.97569e-016 0 -0 3.97569e-016 5.96354e-016 -0 0.0149927 -9.11944e-005 1.38839e-006 -3.97569e-016 5.96354e-016 -3.18055e-015 3.97569e-016 5.96354e-016 -0 0.0189828 -0.0011903 -5.75136e-005 -1.59028e-015 3.97569e-016 -0 3.97569e-016 5.96354e-016 -0 0.0122778 -0.00324974 -0.000683419 1.19271e-015 -1.98785e-016 -3.18055e-015 3.97569e-016 5.96354e-016 -0 -7.95139e-016 5.96354e-016 -3.18055e-015 -3.97569e-016 0 -0 -77.396 -44.6129 -88.6089 -165.644 69.7085 164.835 -3.24069 -17.8943 1.08568 3.18055e-015 7.95139e-015 1.59028e-014 77.3862 -44.7234 88.5144 165.748 69.7228 -164.934 3.15762 -17.8761 -1.04624 -6.1578e-007 6.74652e-007 -6.33991e-006 
0.997023 20.3367 3.00943 -0 -21.6257 -0 -0.956754 18.222 0.218418 -2.17128 36.4368 0.848126 -2.17127 36.4367 0.848125 -15.4302 -10.2844 -16.9487 -4.11432e-006 -37.4224 -1.54104e-006 -12.8158 -15.5871 -20.0719 17.7306 22.0546 -54.4632 32.0547 -16.808 -28.4045 37.7198 3.13014 -14.3928 -2.55585e-007 1.24929e-007 -2.28841e-006 1.32417e-031 -7.95139e-016 9.54166e-015 5.53256e-008 9.10063e-008 -6.73048e-009 -2.55585e-007 1.24929e-007 -2.28841e-006 -0.0146233 -8.85155e-005 -3.7502e-006 5.53254e-008 9.10072e-008 -6.71892e-009 -2.55585e-007 1.24929e-007 -2.28841e-006 -0.0187602 -0.00117642 5.29879e-005 -2.01825e-007 2.16214e-007 -2.2951e-006 -2.55585e-007 1.24929e-007 -2.28841e-006 -0.0122822 -0.00325166 0.000681224 5.53258e-008 9.10066e-008 -6.72228e-009 -2.55585e-007 1.24929e-007 -2.28841e-006 1.32417e-031 -7.95139e-016 9.54166e-015 5.53256e-008 9.10063e-008 -6.73048e-009 12.6806 -15.7311 21.5422 -17.7465 22.0765 54.4491 -31.1564 -16.3591 27.5035 -38.2876 2.42799 15.4807 -1.59028e-015 -5.96354e-016 1.90833e-014 -1.19271e-015 -5.96354e-016 9.54166e-015 -1.19271e-015 -3.97569e-016 6.36111e-015 -1.59028e-015 -5.96354e-016 1.90833e-014 0.0149914 -9.10808e-005 -6.3013e-007 -1.43125e-014 -2.20651e-014 -3.18055e-015 -1.59028e-015 -5.96354e-016 1.90833e-014 0.0190076 -0.00119175 -6.70322e-005 -1.32417e-031 -7.95139e-016 -9.54166e-015 -1.59028e-015 -5.96354e-016 1.90833e-014 0.0122441 -0.00324103 -0.00067064 -7.95139e-016 0 -6.36111e-015 -1.59028e-015 -5.96354e-016 1.90833e-014 -1.19271e-015 -5.96354e-016 9.54166e-015 -1.19271e-015 -3.97569e-016 6.36111e-015 -77.4264 -44.7237 -88.698 -165.589 69.8353 164.791 -3.14369 -17.9065 1.04294 -1.59028e-015 4.77083e-015 -9.54166e-015 77.4164 -44.8347 88.6034 165.694 69.85 -164.891 3.06114 -17.8885 -1.00327 1.7673e-007 3.78327e-007 -6.4169e-006 
0.997027 20.4246 2.98689 -0 -21.3754 -0 -0.956752 18.2219 0.218421 -2.17128 36.4368 0.848127 -2.17127 36.4367 0.848125 -15.3554 -10.0412 -16.8342 -6.03148e-006 -37.2983 -2.05698e-006 -12.7971 -15.7016 -19.8791 17.7306 22.0546 -54.4632 32.2372 -16.9051 -28.6095 37.7878 3.24259 -14.2828 1.95088e-007 -2.24307e-007 2.29192e-006 5.53659e-008 9.09848e-008 -6.70522e-009 -5.53659e-008 -9.09848e-008 6.70522e-009 1.95088e-007 -2.24307e-007 2.29192e-006 -0.0146143 -8.91821e-005 -1.19211e-005 -5.53657e-008 -9.09856e-008 6.69365e-009 1.95088e-007 -2.24307e-007 2.29192e-006 -0.0187561 -0.00117629 4.85271e-005 -5.53657e-008 -9.09858e-008 6.69089e-009 1.95088e-007 -2.24307e-007 2.29192e-006 -0.0122716 -0.00324822 0.00067945 -5.53661e-008 -9.09851e-008 6.69701e-009 1.95088e-007 -2.24307e-007 2.29192e-006 5.53659e-008 9.09848e-008 -6.70522e-009 -5.53659e-008 -9.09848e-008 6.70522e-009 12.6661 -15.8404 21.2934 -17.7464 22.0765 54.4491 -31.3755 -16.4716 27.7431 -38.336 2.5667 15.3291 3.28404e-008 -4.5439e-008 5.75594e-007 -3.97569e-016 -7.95139e-016 1.27222e-014 -3.28404e-008 4.5439e-008 -5.75594e-007 3.28404e-008 -4.5439e-008 5.75594e-007 0.0149913 -9.08731e-005 -6.20946e-006 3.08438e-008 -4.53516e-008 5.75601e-007 3.28404e-008 -4.5439e-008 5.75594e-007 0.0189883 -0.00119057 -5.90812e-005 3.97569e-016 1.98785e-016 -3.18055e-015 3.28404e-008 -4.5439e-008 5.75594e-007 0.0122795 -0.00325018 -0.000682307 -3.12212e-008 4.49442e-008 -5.75689e-007 3.28404e-008 -4.5439e-008 5.75594e-007 -3.97569e-016 -7.95139e-016 1.27222e-014 -3.28404e-008 4.5439e-008 -5.75594e-007 -77.457 -44.8348 -88.7873 -165.534 69.9624 164.747 -3.04666 -17.9186 1.00017 1.10003e-006 6.33417e-007 3.0928e-006 77.4473 -44.9455 88.6929 165.639 69.977 -164.847 2.96466 -17.9011 -0.960343 -1.7847e-006 2.47415e-006 3.99607e-007 
